<mxfile host="app.diagrams.net" modified="2023-11-07T02:14:14.807Z" agent="Mozilla/5.0 (Macintosh; Intel Mac OS X 10_15_7) AppleWebKit/537.36 (KHTML, like Gecko) Chrome/114.0.0.0 Safari/537.36" etag="_5O7MTmxQqeG3Xxw2v5I" version="22.0.8" type="github">
  <diagram name="第 1 页" id="CAmFV50gPuwuHOw8bLKu">
    <mxGraphModel dx="1024" dy="569" grid="1" gridSize="10" guides="1" tooltips="1" connect="1" arrows="1" fold="1" page="1" pageScale="1" pageWidth="827" pageHeight="1169" math="0" shadow="0">
      <root>
        <mxCell id="0" />
        <mxCell id="1" parent="0" />
        <mxCell id="fOWAJJvJUkHjDr1L3M3s-10" value="" style="rounded=1;whiteSpace=wrap;html=1;fontStyle=1;fillColor=#f5f5f5;fontColor=#333333;strokeColor=#666666;" vertex="1" parent="1">
          <mxGeometry x="500" y="310" width="310" height="230" as="geometry" />
        </mxCell>
        <mxCell id="fOWAJJvJUkHjDr1L3M3s-11" style="edgeStyle=orthogonalEdgeStyle;rounded=0;orthogonalLoop=1;jettySize=auto;html=1;exitX=0.5;exitY=1;exitDx=0;exitDy=0;entryX=0.5;entryY=0;entryDx=0;entryDy=0;" edge="1" parent="1" source="fOWAJJvJUkHjDr1L3M3s-9" target="fOWAJJvJUkHjDr1L3M3s-12">
          <mxGeometry relative="1" as="geometry" />
        </mxCell>
        <mxCell id="fOWAJJvJUkHjDr1L3M3s-20" value="请求" style="edgeLabel;html=1;align=center;verticalAlign=middle;resizable=0;points=[];" vertex="1" connectable="0" parent="fOWAJJvJUkHjDr1L3M3s-11">
          <mxGeometry x="-0.1162" relative="1" as="geometry">
            <mxPoint as="offset" />
          </mxGeometry>
        </mxCell>
        <mxCell id="fOWAJJvJUkHjDr1L3M3s-9" value="view" style="rounded=1;whiteSpace=wrap;html=1;fillColor=#d5e8d4;strokeColor=#82b366;" vertex="1" parent="1">
          <mxGeometry x="530" y="190" width="120" height="60" as="geometry" />
        </mxCell>
        <mxCell id="fOWAJJvJUkHjDr1L3M3s-27" style="edgeStyle=orthogonalEdgeStyle;rounded=0;orthogonalLoop=1;jettySize=auto;html=1;exitX=1;exitY=0.5;exitDx=0;exitDy=0;entryX=1;entryY=0.5;entryDx=0;entryDy=0;" edge="1" parent="1" source="fOWAJJvJUkHjDr1L3M3s-12" target="fOWAJJvJUkHjDr1L3M3s-9">
          <mxGeometry relative="1" as="geometry">
            <Array as="points">
              <mxPoint x="660" y="360" />
              <mxPoint x="660" y="220" />
            </Array>
          </mxGeometry>
        </mxCell>
        <mxCell id="fOWAJJvJUkHjDr1L3M3s-28" value="失败" style="edgeLabel;html=1;align=center;verticalAlign=middle;resizable=0;points=[];" vertex="1" connectable="0" parent="fOWAJJvJUkHjDr1L3M3s-27">
          <mxGeometry x="-0.7313" y="-2" relative="1" as="geometry">
            <mxPoint as="offset" />
          </mxGeometry>
        </mxCell>
        <mxCell id="fOWAJJvJUkHjDr1L3M3s-29" value="redirect，uuap" style="edgeLabel;html=1;align=center;verticalAlign=middle;resizable=0;points=[];" vertex="1" connectable="0" parent="fOWAJJvJUkHjDr1L3M3s-27">
          <mxGeometry x="0.2873" y="-1" relative="1" as="geometry">
            <mxPoint as="offset" />
          </mxGeometry>
        </mxCell>
        <mxCell id="fOWAJJvJUkHjDr1L3M3s-31" value="成功" style="edgeStyle=orthogonalEdgeStyle;rounded=0;orthogonalLoop=1;jettySize=auto;html=1;exitX=0.5;exitY=1;exitDx=0;exitDy=0;entryX=0.5;entryY=0;entryDx=0;entryDy=0;" edge="1" parent="1" source="fOWAJJvJUkHjDr1L3M3s-12" target="fOWAJJvJUkHjDr1L3M3s-30">
          <mxGeometry relative="1" as="geometry" />
        </mxCell>
        <mxCell id="fOWAJJvJUkHjDr1L3M3s-12" value="token校验" style="rounded=1;whiteSpace=wrap;html=1;fillColor=#fff2cc;strokeColor=#d6b656;" vertex="1" parent="1">
          <mxGeometry x="555" y="340" width="70" height="40" as="geometry" />
        </mxCell>
        <mxCell id="fOWAJJvJUkHjDr1L3M3s-30" value="" style="rounded=1;whiteSpace=wrap;html=1;fillColor=#ffe6cc;strokeColor=#d79b00;" vertex="1" parent="1">
          <mxGeometry x="552.5" y="410" width="75" height="50" as="geometry" />
        </mxCell>
        <mxCell id="fOWAJJvJUkHjDr1L3M3s-35" style="edgeStyle=orthogonalEdgeStyle;rounded=0;orthogonalLoop=1;jettySize=auto;html=1;exitX=0.5;exitY=1;exitDx=0;exitDy=0;entryX=0.5;entryY=0;entryDx=0;entryDy=0;" edge="1" parent="1" source="fOWAJJvJUkHjDr1L3M3s-32" target="fOWAJJvJUkHjDr1L3M3s-34">
          <mxGeometry relative="1" as="geometry" />
        </mxCell>
        <mxCell id="fOWAJJvJUkHjDr1L3M3s-32" value="前端发起请求" style="rounded=1;whiteSpace=wrap;html=1;" vertex="1" parent="1">
          <mxGeometry x="340" y="700" width="120" height="60" as="geometry" />
        </mxCell>
        <mxCell id="fOWAJJvJUkHjDr1L3M3s-33" value="" style="rounded=1;whiteSpace=wrap;html=1;" vertex="1" parent="1">
          <mxGeometry x="50" y="670" width="120" height="60" as="geometry" />
        </mxCell>
        <mxCell id="fOWAJJvJUkHjDr1L3M3s-37" style="edgeStyle=orthogonalEdgeStyle;rounded=0;orthogonalLoop=1;jettySize=auto;html=1;exitX=0.5;exitY=1;exitDx=0;exitDy=0;entryX=0.5;entryY=0;entryDx=0;entryDy=0;" edge="1" parent="1" source="fOWAJJvJUkHjDr1L3M3s-34" target="fOWAJJvJUkHjDr1L3M3s-36">
          <mxGeometry relative="1" as="geometry" />
        </mxCell>
        <mxCell id="fOWAJJvJUkHjDr1L3M3s-38" value="是" style="edgeLabel;html=1;align=center;verticalAlign=middle;resizable=0;points=[];" vertex="1" connectable="0" parent="fOWAJJvJUkHjDr1L3M3s-37">
          <mxGeometry x="0.0222" relative="1" as="geometry">
            <mxPoint as="offset" />
          </mxGeometry>
        </mxCell>
        <mxCell id="fOWAJJvJUkHjDr1L3M3s-40" style="edgeStyle=orthogonalEdgeStyle;rounded=0;orthogonalLoop=1;jettySize=auto;html=1;exitX=1;exitY=0.5;exitDx=0;exitDy=0;entryX=0;entryY=0.5;entryDx=0;entryDy=0;" edge="1" parent="1" source="fOWAJJvJUkHjDr1L3M3s-34" target="fOWAJJvJUkHjDr1L3M3s-39">
          <mxGeometry relative="1" as="geometry" />
        </mxCell>
        <mxCell id="fOWAJJvJUkHjDr1L3M3s-41" value="否" style="edgeLabel;html=1;align=center;verticalAlign=middle;resizable=0;points=[];" vertex="1" connectable="0" parent="fOWAJJvJUkHjDr1L3M3s-40">
          <mxGeometry x="-0.4204" y="2" relative="1" as="geometry">
            <mxPoint as="offset" />
          </mxGeometry>
        </mxCell>
        <mxCell id="fOWAJJvJUkHjDr1L3M3s-34" value="是否登陆请求，" style="rounded=1;whiteSpace=wrap;html=1;" vertex="1" parent="1">
          <mxGeometry x="340" y="820" width="120" height="60" as="geometry" />
        </mxCell>
        <mxCell id="fOWAJJvJUkHjDr1L3M3s-49" style="edgeStyle=orthogonalEdgeStyle;rounded=0;orthogonalLoop=1;jettySize=auto;html=1;exitX=0;exitY=0.5;exitDx=0;exitDy=0;entryX=0;entryY=0.5;entryDx=0;entryDy=0;" edge="1" parent="1" source="fOWAJJvJUkHjDr1L3M3s-36" target="fOWAJJvJUkHjDr1L3M3s-32">
          <mxGeometry relative="1" as="geometry">
            <Array as="points">
              <mxPoint x="310" y="990" />
              <mxPoint x="310" y="730" />
            </Array>
          </mxGeometry>
        </mxCell>
        <mxCell id="fOWAJJvJUkHjDr1L3M3s-50" value="redirect" style="edgeLabel;html=1;align=center;verticalAlign=middle;resizable=0;points=[];" vertex="1" connectable="0" parent="fOWAJJvJUkHjDr1L3M3s-49">
          <mxGeometry x="-0.0543" y="3" relative="1" as="geometry">
            <mxPoint as="offset" />
          </mxGeometry>
        </mxCell>
        <mxCell id="fOWAJJvJUkHjDr1L3M3s-36" value="uuap" style="rounded=1;whiteSpace=wrap;html=1;" vertex="1" parent="1">
          <mxGeometry x="340" y="960" width="120" height="60" as="geometry" />
        </mxCell>
        <mxCell id="fOWAJJvJUkHjDr1L3M3s-44" style="edgeStyle=orthogonalEdgeStyle;rounded=0;orthogonalLoop=1;jettySize=auto;html=1;exitX=1;exitY=0.5;exitDx=0;exitDy=0;entryX=0;entryY=0.5;entryDx=0;entryDy=0;" edge="1" parent="1" source="fOWAJJvJUkHjDr1L3M3s-39" target="fOWAJJvJUkHjDr1L3M3s-43">
          <mxGeometry relative="1" as="geometry" />
        </mxCell>
        <mxCell id="fOWAJJvJUkHjDr1L3M3s-45" value="是" style="edgeLabel;html=1;align=center;verticalAlign=middle;resizable=0;points=[];" vertex="1" connectable="0" parent="fOWAJJvJUkHjDr1L3M3s-44">
          <mxGeometry x="0.0456" y="-2" relative="1" as="geometry">
            <mxPoint as="offset" />
          </mxGeometry>
        </mxCell>
        <mxCell id="fOWAJJvJUkHjDr1L3M3s-47" style="edgeStyle=orthogonalEdgeStyle;rounded=0;orthogonalLoop=1;jettySize=auto;html=1;exitX=0.5;exitY=0;exitDx=0;exitDy=0;" edge="1" parent="1" source="fOWAJJvJUkHjDr1L3M3s-39" target="fOWAJJvJUkHjDr1L3M3s-46">
          <mxGeometry relative="1" as="geometry" />
        </mxCell>
        <mxCell id="fOWAJJvJUkHjDr1L3M3s-48" value="redirect to uuap" style="edgeLabel;html=1;align=center;verticalAlign=middle;resizable=0;points=[];" vertex="1" connectable="0" parent="fOWAJJvJUkHjDr1L3M3s-47">
          <mxGeometry x="0.1333" y="2" relative="1" as="geometry">
            <mxPoint as="offset" />
          </mxGeometry>
        </mxCell>
        <mxCell id="fOWAJJvJUkHjDr1L3M3s-39" value="token校验是否成功" style="rounded=1;whiteSpace=wrap;html=1;" vertex="1" parent="1">
          <mxGeometry x="540" y="820" width="120" height="60" as="geometry" />
        </mxCell>
        <mxCell id="fOWAJJvJUkHjDr1L3M3s-43" value="pass" style="rounded=1;whiteSpace=wrap;html=1;" vertex="1" parent="1">
          <mxGeometry x="707" y="820" width="120" height="60" as="geometry" />
        </mxCell>
        <mxCell id="fOWAJJvJUkHjDr1L3M3s-46" value="uuap" style="rounded=1;whiteSpace=wrap;html=1;" vertex="1" parent="1">
          <mxGeometry x="540" y="700" width="120" height="60" as="geometry" />
        </mxCell>
      </root>
    </mxGraphModel>
  </diagram>
</mxfile>
